<svg aria-hidden="true" style="position: absolute; width: 0; height: 0; overflow: hidden;" version="1.1" xmlns="http://www.w3.org/2000/svg" xmlns:xlink="http://www.w3.org/1999/xlink">
<defs>
<symbol id="icon-chevron-thin-left" viewBox="0 0 20 20">
<title>chevron-thin-left</title>
<path d="M13.891 17.418c0.268 0.272 0.268 0.709 0 0.979s-0.701 0.271-0.969 0l-7.83-7.908c-0.268-0.27-0.268-0.707 0-0.979l7.83-7.908c0.268-0.27 0.701-0.27 0.969 0s0.268 0.709 0 0.979l-7.141 7.419 7.141 7.418z"></path>
</symbol>
<symbol id="icon-controller-record" viewBox="0 0 20 20">
<title>controller-record</title>
<path d="M10 3c-3.866 0-7 3.133-7 7 0 3.865 3.134 7 7 7s7-3.135 7-7c0-3.867-3.134-7-7-7z"></path>
</symbol>
<symbol id="icon-drive" viewBox="0 0 20 20">
<title>drive</title>
<path d="M19.059 10.898l-3.171-7.927c-0.234-0.587-0.802-0.971-1.434-0.971h-8.908c-0.632 0-1.2 0.384-1.434 0.971l-3.171 7.927c-0.288 0.721-0.373 1.507-0.246 2.272l0.59 3.539c0.124 0.745 0.768 1.291 1.523 1.291h14.383c0.755 0 1.399-0.546 1.523-1.291l0.59-3.539c0.129-0.765 0.044-1.551-0.245-2.272zM16.959 15.245c-0.072 0.436-0.449 0.755-0.891 0.755h-12.136c-0.442 0-0.819-0.319-0.891-0.755l-0.365-2.193c-0.093-0.551 0.332-1.052 0.891-1.052h12.867c0.558 0 0.983 0.501 0.891 1.052l-0.366 2.193z"></path>
</symbol>
<symbol id="icon-folder" viewBox="0 0 20 20">
<title>folder</title>
<path d="M18.405 4.799c-0.111-0.44-0.655-0.799-1.21-0.799h-6.814c-0.554 0-1.33-0.318-1.722-0.707l-0.596-0.588c-0.392-0.389-1.167-0.705-1.721-0.705h-3.255c-0.555 0-1.059 0.447-1.12 0.994l-0.292 3.006h16.931l-0.201-1.201zM19.412 7h-18.824c-0.342 0-0.61 0.294-0.577 0.635l0.923 9.669c0.037 0.394 0.369 0.696 0.766 0.696h16.6c0.397 0 0.728-0.302 0.766-0.696l0.923-9.669c0.033-0.341-0.235-0.635-0.577-0.635z"></path>
</symbol>
</defs>
</svg>
